<svg xmlns="http://www.w3.org/2000/svg" width="100" height="100"><path d="M50 24c-12.984 0-24.758 2.719-33.453 7.258C7.852 35.797 2 42.336 2 50c0 7.664 5.852 14.203 14.547 18.742C25.242 73.282 37.016 76 50 76c12.984 0 24.758-2.719 33.453-7.258C92.148 64.203 98 57.664 98 50c0-7.664-5.852-14.203-14.547-18.742C74.758 26.718 62.984 24 50 24zm0 4c12.422 0 23.648 2.648 31.602 6.805C89.555 38.953 94 44.406 94 50c0 5.594-4.445 11.047-12.398 15.195C73.648 69.352 62.422 72 50 72s-23.648-2.648-31.602-6.805C10.445 61.047 6 55.594 6 50c0-5.594 4.445-11.047 12.398-15.195C26.352 30.648 37.578 28 50 28zm-4.984 4L40 56h5.25l2.531-12h4.196c1.336 0 2.226.219 2.64.664.406.445.492 1.29.258 2.5L52.961 56h5.328l2.078-9.555c.446-2.289.11-3.968-1-4.992C58.234 40.414 56.242 40 53.273 40h-4.68l1.665-8zM22 40l-4.055 22h5.29l1.054-6h3.297c6.89 0 10.64-1.594 12.039-7.508C40.828 43.406 37.75 40 32.665 40zm42 0l-4.055 22h5.29l1.054-6h3.297c6.89 0 10.64-1.594 12.039-7.508C82.828 43.406 79.75 40 74.665 40zm-37.453 4h4.117c3.422 0 4.14 1.54 3.961 3.25-.46 4.414-3.21 4.75-6.164 4.75h-3.43zm42 0h4.117c3.422 0 4.14 1.54 3.961 3.25-.46 4.414-3.21 4.75-6.164 4.75h-3.43zm0 0" fill="#9e9e9e"/></svg>